<?xml version="1.0" encoding="utf-8"?>
<!-- Generator: Adobe Illustrator 23.0.3, SVG Export Plug-In . SVG Version: 6.00 Build 0)  -->
<svg version="1.1" id="Capa_1" xmlns="http://www.w3.org/2000/svg" xmlns:xlink="http://www.w3.org/1999/xlink" x="0px" y="0px" height="37" width="37"
	 viewBox="0 0 160.1 160.1" style="enable-background:new 0 0 160.1 160.1;" xml:space="preserve">
<style type="text/css">
	.st0{fill:#00E676;}
	.st1{stroke:#000000;stroke-width:2;stroke-miterlimit:10;}
	.st2{fill:none;stroke:#000000;stroke-width:6;stroke-miterlimit:10;}
	.st3{fill:url(#SVGID_1_);}
	.st4{fill:url(#SVGID_2_);}
	.st5{fill:url(#SVGID_3_);}
	.st6{fill:url(#SVGID_4_);}
	.st7{fill:url(#SVGID_5_);}
	.st8{fill:url(#SVGID_6_);}
	.st9{fill:url(#SVGID_7_);}
	.st10{fill:url(#SVGID_8_);}
	.st11{fill:url(#SVGID_9_);}
	.st12{fill:url(#SVGID_10_);}
	.st13{fill:url(#SVGID_11_);}
	.st14{fill:url(#SVGID_12_);}
	.st15{fill:url(#SVGID_13_);}
	.st16{fill:url(#SVGID_14_);}
	.st17{fill:url(#SVGID_15_);}
	.st18{fill:url(#SVGID_16_);}
	.st19{fill:url(#SVGID_17_);}
	.st20{fill:url(#SVGID_18_);}
	.st21{fill:url(#SVGID_19_);}
	.st22{fill:url(#SVGID_20_);}
	.st23{fill:url(#SVGID_21_);}
	.st24{fill:url(#SVGID_22_);}
	.st25{fill:url(#SVGID_23_);}
	.st26{fill:url(#SVGID_24_);}
	.st27{fill:url(#SVGID_25_);}
	.st28{fill:url(#SVGID_26_);}
	.st29{fill:url(#SVGID_27_);}
	.st30{fill:url(#SVGID_28_);}
	.st31{fill:url(#SVGID_29_);}
	.st32{fill:url(#SVGID_30_);}
	.st33{fill:url(#SVGID_31_);}
	.st34{fill:url(#SVGID_32_);}
	.st35{fill:url(#SVGID_33_);}
	.st36{fill:url(#SVGID_34_);}
	.st37{fill:url(#SVGID_35_);}
	.st38{fill:url(#SVGID_36_);}
	.st39{fill:url(#SVGID_37_);}
	.st40{fill:url(#SVGID_38_);}
	.st41{fill:url(#SVGID_39_);}
	.st42{fill:url(#SVGID_40_);}
	.st43{fill:url(#SVGID_41_);}
	.st44{fill:url(#SVGID_42_);}
	.st45{fill:url(#SVGID_43_);}
	.st46{fill:url(#SVGID_44_);}
	.st47{fill:url(#SVGID_45_);}
	.st48{fill:url(#SVGID_46_);}
	.st49{fill:url(#SVGID_47_);}
	.st50{fill:#343434;}
	.st51{fill:#DE495C;}
	.st52{fill:url(#SVGID_48_);}
</style>
<g>
	<path d="M80,157.8C80,157.8,80,157.8,80,157.8c-20.8,0-40.3-8.1-55-22.8C10.4,120.3,2.3,100.8,2.3,80c0-20.8,8.1-40.3,22.8-55l0,0
		c30.3-30.3,79.7-30.3,110,0c30.3,30.3,30.3,79.7,0,110C120.3,149.7,100.8,157.8,80,157.8z M30,30C16.6,43.4,9.3,61.1,9.3,80
		c0,18.9,7.4,36.7,20.7,50c13.4,13.4,31.1,20.7,50,20.7s36.7-7.4,50-20.7c27.6-27.6,27.6-72.5,0-100.1C102.5,2.4,57.6,2.4,30,30
		L30,30z"/>
	<path d="M40.2,85.5h75.3l-30.3,30.3c-1.3,1.3-1.3,3.5,0,4.8c1.3,1.3,3.5,1.3,4.8,0l38.3-38.3L90.7,44.6c-0.7-0.7-1.5-1-2.4-1
		c-0.9,0-1.7,0.3-2.4,1c-1.3,1.3-1.3,3.5,0,4.8l29.3,29.3H40.2c-1.9,0-3.4,1.5-3.4,3.4S38.3,85.5,40.2,85.5z"/>
</g>
</svg>
