<svg width="50" height="50" id="logo" viewBox="0 0 50 50" fill="none" xmlns="http://www.w3.org/2000/svg">
<g clip-path="url(#clip0)">
<path d="M50 50.5H50.5V50V0V-0.5H50H0H-0.5V0V50V50.5H0H50ZM48.3936 48.3936H1.60637V1.60637H48.3936V48.3936Z" fill="#0C0C0C" stroke="black"/>
<path d="M19.7104 33.8016C19.697 33.7961 19.6855 33.7868 19.6772 33.775C19.6688 33.7632 19.6639 33.7493 19.6631 33.7348C19.6623 33.7204 19.6655 33.706 19.6725 33.6933C19.6794 33.6806 19.6898 33.6702 19.7024 33.6631C20.0721 33.4092 20.3027 33.0241 20.3027 32.4778C20.3027 31.5236 19.6485 30.8228 18.3552 30.8228H15.5541C15.5054 30.8235 15.4588 30.8432 15.4244 30.8776C15.3899 30.9121 15.3702 30.9586 15.3695 31.0073V36.6414C15.3702 36.6901 15.3899 36.7366 15.4244 36.7711C15.4588 36.8056 15.5054 36.8252 15.5541 36.826H18.6171C19.833 36.826 20.5719 36.1257 20.5719 35.1329C20.5725 34.4866 20.2414 34.0481 19.7104 33.8016ZM16.9087 32.3778C16.9091 32.3375 16.9253 32.299 16.9537 32.2705C16.9821 32.2419 17.0206 32.2256 17.0609 32.225H18.2615C18.5847 32.225 18.7465 32.4176 18.7465 32.7021C18.7465 32.9866 18.5926 33.1792 18.1786 33.1792H17.0609C17.0201 33.179 16.981 33.1628 16.9522 33.1339C16.9234 33.1051 16.9071 33.066 16.907 33.0253L16.9087 32.3778ZM18.4478 35.4334H17.0609C17.0201 35.4332 16.981 35.417 16.9522 35.3881C16.9234 35.3593 16.9071 35.3202 16.907 35.2795V34.5326C16.9071 34.4918 16.9234 34.4528 16.9522 34.4239C16.981 34.3951 17.0201 34.3788 17.0609 34.3787H18.4461C18.8618 34.3787 19.0141 34.5866 19.0141 34.8944C19.0141 35.2022 18.8635 35.4334 18.4484 35.4334H18.4478Z" fill="#0C0C0C"/>
<path d="M25.5965 35.1409C25.5849 35.1252 25.5768 35.1072 25.5728 35.0881C25.5689 35.069 25.5691 35.0492 25.5735 35.0302C25.578 35.0112 25.5865 34.9933 25.5985 34.9779C25.6105 34.9625 25.6257 34.9499 25.6431 34.941C26.3587 34.5485 26.6898 33.8096 26.6898 33.0168C26.6898 31.8241 25.9816 30.8234 24.4425 30.8234H21.6947C21.646 30.8241 21.5995 30.8438 21.565 30.8782C21.5305 30.9127 21.5109 30.9592 21.5101 31.0079V36.642C21.5109 36.6907 21.5305 36.7373 21.565 36.7717C21.5995 36.8062 21.646 36.8259 21.6947 36.8266H22.8539C22.9026 36.8259 22.9491 36.8062 22.9836 36.7717C23.0181 36.7373 23.0377 36.6907 23.0385 36.642V35.3721C23.0386 35.3517 23.0427 35.3315 23.0506 35.3127C23.0585 35.2939 23.07 35.2769 23.0845 35.2626C23.099 35.2483 23.1163 35.237 23.1352 35.2294C23.1541 35.2217 23.1743 35.2179 23.1947 35.2182H23.6717C23.7195 35.2183 23.7667 35.2295 23.8094 35.2509C23.8522 35.2723 23.8894 35.3032 23.9182 35.3414L24.8571 36.6727C24.8907 36.7191 24.9346 36.7571 24.9853 36.7838C25.036 36.8105 25.0922 36.8252 25.1495 36.8266H26.6194C26.6372 36.8264 26.6546 36.8213 26.6697 36.8119C26.6847 36.8024 26.6969 36.789 26.7048 36.7731C26.7128 36.7572 26.7161 36.7394 26.7146 36.7217C26.7131 36.7039 26.7066 36.687 26.6961 36.6727L25.5965 35.1409ZM24.3573 33.825H23.1947C23.1539 33.8248 23.1148 33.8086 23.086 33.7797C23.0572 33.7509 23.0409 33.7118 23.0408 33.6711V32.3778C23.0412 32.3373 23.0576 32.2985 23.0864 32.2699C23.1152 32.2413 23.1541 32.2252 23.1947 32.2251H24.3567C24.9723 32.2251 25.2035 32.5715 25.2035 33.0333C25.2041 33.4479 24.9735 33.825 24.3573 33.825Z" fill="#0C0C0C"/>
<path d="M31.2391 30.9926C31.218 30.9425 31.1828 30.8997 31.1377 30.8694C31.0925 30.8391 31.0396 30.8227 30.9852 30.8222H29.8311C29.7768 30.8227 29.7238 30.8391 29.6787 30.8694C29.6336 30.8997 29.5983 30.9425 29.5773 30.9926L27.2839 36.655C27.2763 36.6738 27.2734 36.694 27.2754 36.7141C27.2775 36.7342 27.2844 36.7535 27.2956 36.7703C27.3068 36.7871 27.3219 36.8009 27.3397 36.8105C27.3574 36.8201 27.3773 36.8252 27.3975 36.8254H28.7038C28.7572 36.8249 28.8092 36.8084 28.8531 36.778C28.897 36.7476 28.9309 36.7048 28.9503 36.655L29.1655 36.0928C29.1817 36.0505 29.2101 36.014 29.2471 35.988C29.2842 35.962 29.3281 35.9477 29.3734 35.9468H31.4299C31.4752 35.9477 31.5191 35.962 31.5562 35.988C31.5932 36.014 31.6216 36.0505 31.6378 36.0928L31.8531 36.655C31.8724 36.7048 31.9063 36.7476 31.9502 36.778C31.9941 36.8084 32.0462 36.8249 32.0996 36.8254H33.4058C33.426 36.8252 33.4459 36.8201 33.4636 36.8105C33.4814 36.8009 33.4965 36.7871 33.5077 36.7703C33.5189 36.7535 33.5259 36.7342 33.5279 36.7141C33.5299 36.694 33.527 36.6738 33.5194 36.655L31.2391 30.9926ZM30.9086 34.5536H29.9004C29.8831 34.5532 29.8661 34.5487 29.8509 34.5405C29.8356 34.5322 29.8226 34.5204 29.8128 34.5061C29.803 34.4917 29.7968 34.4753 29.7947 34.4581C29.7925 34.4409 29.7945 34.4234 29.8005 34.4071L30.3548 32.9372C30.3585 32.9259 30.3658 32.916 30.3755 32.909C30.3851 32.902 30.3968 32.8982 30.4088 32.8982C30.4207 32.8982 30.4324 32.902 30.4421 32.909C30.4517 32.916 30.459 32.9259 30.4627 32.9372L31.0091 34.4071C31.0152 34.4234 31.0173 34.441 31.0152 34.4583C31.0131 34.4756 31.0068 34.4921 30.997 34.5065C30.9871 34.5209 30.9739 34.5327 30.9585 34.5409C30.9431 34.5491 30.926 34.5535 30.9086 34.5536Z" fill="#0C0C0C"/>
<path d="M20.644 38.69H19.482C19.4333 38.6908 19.3867 38.7104 19.3523 38.7449C19.3178 38.7794 19.2981 38.8259 19.2974 38.8746V41.8915C19.2985 41.9028 19.2958 41.9142 19.2896 41.9237C19.2834 41.9332 19.2742 41.9403 19.2634 41.9439C19.2526 41.9475 19.241 41.9473 19.2303 41.9433C19.2197 41.9394 19.2107 41.9319 19.2048 41.9222L16.7343 38.836C16.6987 38.7903 16.6531 38.7533 16.601 38.7279C16.5489 38.7025 16.4917 38.6894 16.4338 38.6895H15.5029C15.4542 38.6902 15.4077 38.7099 15.3732 38.7443C15.3388 38.7788 15.3191 38.8253 15.3184 38.874V44.5081C15.3191 44.5568 15.3388 44.6033 15.3732 44.6378C15.4077 44.6723 15.4542 44.6919 15.5029 44.6927H16.6633C16.712 44.6919 16.7585 44.6723 16.793 44.6378C16.8274 44.6033 16.8471 44.5568 16.8478 44.5081V41.498C16.847 41.4868 16.8499 41.4758 16.856 41.4665C16.8622 41.4572 16.8713 41.4502 16.8819 41.4467C16.8924 41.4432 16.9039 41.4433 16.9144 41.447C16.9249 41.4507 16.9339 41.4579 16.9399 41.4673L19.4127 44.5495C19.4482 44.5952 19.4937 44.6321 19.5457 44.6574C19.5977 44.6827 19.6548 44.6957 19.7126 44.6955H20.6435C20.6922 44.6948 20.7387 44.6751 20.7732 44.6406C20.8076 44.6062 20.8273 44.5597 20.828 44.5109V38.8769C20.8279 38.8279 20.8086 38.7808 20.7742 38.7459C20.7398 38.711 20.693 38.6909 20.644 38.69Z" fill="#0C0C0C"/>
<path d="M24.4753 40.9221C23.7597 40.6756 23.4826 40.5529 23.4826 40.3144C23.4826 40.1145 23.6904 39.9066 24.2135 39.9066C24.7213 39.9066 25.0137 40.1377 25.1063 40.3916C25.1529 40.5302 25.2199 40.5995 25.3681 40.5995H26.4382C26.4928 40.5963 26.5441 40.5721 26.5813 40.532C26.6186 40.4919 26.6389 40.439 26.6381 40.3842C26.5608 39.3051 25.5834 38.5753 24.1828 38.5753C22.813 38.5753 21.835 39.2909 21.835 40.4382C21.835 41.6775 23.0895 42.1392 24.0437 42.4544C24.7673 42.7009 25.066 42.852 25.066 43.1087C25.066 43.2859 24.8814 43.4784 24.3038 43.4784C23.7648 43.4784 23.4519 43.2938 23.3417 43.0934C23.2497 42.9315 23.2111 42.8934 23.0339 42.8934H21.9968C21.9422 42.8967 21.8909 42.9208 21.8536 42.9609C21.8164 43.001 21.7961 43.054 21.7969 43.1087C21.9048 44.2094 22.9748 44.8097 24.3368 44.8097C25.6987 44.8097 26.7221 44.194 26.7221 43.0241C26.7227 41.7098 25.3062 41.2146 24.4753 40.9221Z" fill="#0C0C0C"/>
<path d="M32.63 38.69H27.7195C27.6708 38.6907 27.6242 38.7104 27.5898 38.7449C27.5553 38.7793 27.5356 38.8259 27.5349 38.8746V39.9986C27.5356 40.0473 27.5553 40.0938 27.5898 40.1283C27.6242 40.1627 27.6708 40.1824 27.7195 40.1831H29.253C29.2937 40.1833 29.3328 40.1996 29.3616 40.2284C29.3905 40.2572 29.4067 40.2963 29.4069 40.3371V44.5087C29.4076 44.5574 29.4273 44.6039 29.4617 44.6384C29.4962 44.6728 29.5427 44.6925 29.5915 44.6932H30.7614C30.8102 44.6925 30.8567 44.6728 30.8911 44.6384C30.9256 44.6039 30.9453 44.5574 30.946 44.5087V40.3376C30.9462 40.2969 30.9624 40.2578 30.9913 40.229C31.0201 40.2001 31.0592 40.1839 31.0999 40.1837H32.6334C32.6821 40.183 32.7286 40.1633 32.7631 40.1288C32.7976 40.0944 32.8172 40.0479 32.818 39.9991V38.8752C32.8174 38.8257 32.7973 38.7786 32.7621 38.7439C32.7269 38.7092 32.6794 38.6898 32.63 38.69Z" fill="#0C0C0C"/>
<path d="M38.1806 38.69H33.9397C33.891 38.6907 33.8445 38.7104 33.81 38.7449C33.7755 38.7793 33.7559 38.8259 33.7551 38.8746V44.5086C33.7559 44.5574 33.7755 44.6039 33.81 44.6384C33.8445 44.6728 33.891 44.6925 33.9397 44.6932H38.1806C38.2293 44.6925 38.2758 44.6728 38.3103 44.6384C38.3448 44.6039 38.3644 44.5574 38.3652 44.5086V43.3932C38.3644 43.3445 38.3448 43.2979 38.3103 43.2635C38.2758 43.229 38.2293 43.2093 38.1806 43.2086H35.4482C35.4074 43.2085 35.3683 43.1922 35.3395 43.1634C35.3107 43.1345 35.2944 43.0955 35.2943 43.0547V42.5929C35.2944 42.5522 35.3107 42.5131 35.3395 42.4843C35.3683 42.4555 35.4074 42.4392 35.4482 42.439H37.6342C37.683 42.4384 37.7296 42.4188 37.7641 42.3843C37.7986 42.3498 37.8182 42.3032 37.8188 42.2545V41.2321C37.8182 41.1834 37.7986 41.1368 37.7641 41.1023C37.7296 41.0678 37.683 41.0482 37.6342 41.0476H35.4482C35.4074 41.0474 35.3683 41.0311 35.3395 41.0023C35.3107 40.9735 35.2944 40.9344 35.2943 40.8936V40.3393C35.2944 40.2986 35.3107 40.2595 35.3395 40.2307C35.3683 40.2018 35.4074 40.1856 35.4482 40.1854H38.1806C38.2293 40.1847 38.2758 40.165 38.3103 40.1305C38.3448 40.0961 38.3644 40.0496 38.3652 40.0008V38.8752C38.3646 38.8263 38.345 38.7797 38.3105 38.7451C38.276 38.7105 38.2294 38.6907 38.1806 38.69Z" fill="#0C0C0C"/>
<path d="M44.6853 44.5399L43.5846 43.0065C43.5729 42.9908 43.5647 42.9728 43.5607 42.9536C43.5567 42.9345 43.5569 42.9147 43.5613 42.8957C43.5657 42.8766 43.5743 42.8588 43.5864 42.8434C43.5984 42.828 43.6137 42.8154 43.6312 42.8066C44.3468 42.4141 44.6779 41.6752 44.6779 40.8823C44.6779 39.6896 43.9697 38.6889 42.4305 38.6889H39.6828C39.634 38.6896 39.5875 38.7093 39.553 38.7438C39.5186 38.7782 39.4989 38.8248 39.4982 38.8735V44.5076C39.4989 44.5563 39.5186 44.6028 39.553 44.6373C39.5875 44.6717 39.634 44.6914 39.6828 44.6922H40.8448C40.8935 44.6914 40.94 44.6717 40.9745 44.6373C41.009 44.6028 41.0286 44.5563 41.0294 44.5076V43.2393C41.0295 43.1986 41.0458 43.1595 41.0746 43.1307C41.1035 43.1018 41.1425 43.0856 41.1833 43.0854H41.6604C41.7082 43.0856 41.7553 43.0968 41.7981 43.1182C41.8408 43.1395 41.8781 43.1705 41.9069 43.2087L42.8457 44.5399C42.8793 44.5864 42.9232 44.6244 42.9739 44.6511C43.0247 44.6778 43.0809 44.6924 43.1382 44.6939H44.6064C44.6243 44.6941 44.642 44.6893 44.6574 44.68C44.6728 44.6708 44.6853 44.6574 44.6935 44.6414C44.7018 44.6254 44.7053 44.6074 44.7039 44.5895C44.7024 44.5716 44.696 44.5544 44.6853 44.5399ZM42.3453 41.6922H41.1833C41.1425 41.6924 41.1033 41.6764 41.0743 41.6478C41.0452 41.6192 41.0287 41.5802 41.0282 41.5395V40.2451C41.0284 40.2043 41.0447 40.1653 41.0735 40.1364C41.1023 40.1076 41.1414 40.0913 41.1822 40.0912H42.3442C42.9599 40.0912 43.191 40.4376 43.191 40.8994C43.1921 41.3123 42.9593 41.6922 42.3453 41.6922Z" fill="#0C0C0C"/>
<path d="M44.4103 35.3369H34.6405C34.4786 35.3369 34.3474 35.4681 34.3474 35.6299V36.5335C34.3474 36.6954 34.4786 36.8266 34.6405 36.8266H44.4103C44.5722 36.8266 44.7034 36.6954 44.7034 36.5335V35.6299C44.7034 35.4681 44.5722 35.3369 44.4103 35.3369Z" fill="#0C0C0C"/>
</g>
<defs>
<clipPath id="clip0">
<rect width="50" height="50" fill="white"/>
</clipPath>
</defs>
</svg>
