<svg id="Layer" enable-background="new 0 0 64 64" height="60" viewBox="0 0 64 64" width="60" xmlns="http://www.w3.org/2000/svg"><path d="M0.423096 11C0.423096 5.1679 5.1679 0.423096 11 0.423096C16.8321 0.423096 21.5769 5.1679 21.5769 11C21.5769 16.8321 16.8321 21.5769 11 21.5769C5.1679 21.5769 0.423096 16.8321 0.423096 11ZM2.53848 11C2.53848 15.6655 6.33454 19.4616 11 19.4616C15.6655 19.4616 19.4616 15.6655 19.4616 11C19.4616 6.33454 15.6655 2.53848 11 2.53848C6.33454 2.53848 2.53848 6.33454 2.53848 11ZM9.94226 5.71155H12.0576V10.5621L14.9208 13.4253L13.4252 14.9209L9.94226 11.4379V5.71155Z" fill="white"></path></svg>