<?xml version="1.0" encoding="utf-8"?>
<!-- Generator: Adobe Illustrator 16.0.0, SVG Export Plug-In . SVG Version: 6.00 Build 0)  -->
<!DOCTYPE svg PUBLIC "-//W3C//DTD SVG 1.1//EN" "http://www.w3.org/Graphics/SVG/1.1/DTD/svg11.dtd">
<svg version="1.1" id="Layer_1" xmlns="http://www.w3.org/2000/svg" xmlns:xlink="http://www.w3.org/1999/xlink" x="0px" y="0px"
	 width="100%" height="100%" viewBox="0 0 212.795 220.59" enable-background="new 0 0 212.795 220.59"
	 xml:space="preserve">
<path fill="##fcd232" d="M142.792,160.469H75.733c-1.104,0-2-0.896-2-2v-0.925c0-16.652-5.412-32.712-15.24-45.221
	c-9.001-11.457-13.758-25.231-13.758-39.834c0-17.416,6.834-33.741,19.242-45.967C76.384,14.299,92.791,7.698,110.243,7.968
	c16.475,0.244,32.108,6.775,44.02,18.389c11.915,11.617,18.833,27.079,19.478,43.538c0.591,15.065-4.111,29.919-13.238,41.824
	c-10.277,13.404-15.71,29.031-15.71,45.192v1.558C144.792,159.573,143.897,160.469,142.792,160.469 M77.727,156.469h63.068
	c0.098-16.891,5.81-33.197,16.534-47.184c8.56-11.166,12.969-25.1,12.415-39.234c-1.258-32.094-27.42-57.605-59.56-58.083
	c-16.322-0.275-31.761,5.939-43.398,17.403c-11.64,11.469-18.05,26.782-18.05,43.118c0,13.697,4.462,26.618,12.904,37.363
	C71.806,122.792,77.498,139.309,77.727,156.469"/>
<path fill="##fcd232" d="M61.113,65.247c-0.155,0-0.313-0.018-0.471-0.056c-1.074-0.259-1.734-1.34-1.474-2.414
	c3.591-14.859,13.537-27.28,27.286-34.078c0.989-0.488,2.19-0.084,2.68,0.906c0.489,0.991,0.083,2.19-0.907,2.68
	c-12.684,6.271-21.859,17.729-25.172,31.432C62.834,64.633,62.015,65.247,61.113,65.247"/>
<path fill="##fcd232" d="M61.107,88.592c-0.903,0-1.722-0.614-1.943-1.531c-0.764-3.167-1.229-6.431-1.381-9.7
	c-0.051-1.104,0.802-2.039,1.906-2.092c1.114-0.043,2.039,0.803,2.09,1.905c0.14,3.018,0.569,6.027,1.274,8.949
	c0.259,1.073-0.402,2.155-1.475,2.413C61.42,88.574,61.263,88.592,61.107,88.592"/>
<path fill="##fcd232" d="M142.491,175.573H76.036c-5.267,0-9.552-4.286-9.552-9.553s4.285-9.552,9.552-9.552h66.455
	c5.267,0,9.552,4.285,9.552,9.552S147.758,175.573,142.491,175.573 M76.036,160.469c-3.061,0-5.552,2.49-5.552,5.552
	s2.491,5.553,5.552,5.553h66.455c3.061,0,5.552-2.491,5.552-5.553s-2.491-5.552-5.552-5.552H76.036z"/>
<path fill="##fcd232" d="M138.12,190.677H80.408c-5.012,0-9.09-4.079-9.09-9.09v-0.924c0-5.013,4.078-9.091,9.09-9.091h57.712
	c5.012,0,9.09,4.078,9.09,9.091v0.924C147.21,186.598,143.132,190.677,138.12,190.677 M80.408,175.572
	c-2.807,0-5.09,2.284-5.09,5.091v0.924c0,2.806,2.283,5.09,5.09,5.09h57.712c2.807,0,5.09-2.284,5.09-5.09v-0.924
	c0-2.807-2.283-5.091-5.09-5.091H80.408z"/>
<path fill="##fcd232" d="M132.027,205.779H86.5c-4.625,0-8.389-3.763-8.389-8.389v-2.329c0-4.626,3.764-8.389,8.389-8.389h45.528
	c4.625,0,8.389,3.763,8.389,8.389v2.329C140.417,202.017,136.652,205.779,132.027,205.779 M86.5,190.673
	c-2.42,0-4.389,1.969-4.389,4.389v2.329c0,2.42,1.969,4.389,4.389,4.389h45.528c2.42,0,4.389-1.969,4.389-4.389v-2.329
	c0-2.42-1.969-4.389-4.389-4.389H86.5z"/>
<path fill="##fcd232" d="M109.264,216.808c-7.184,0-13.029-5.844-13.029-13.028c0-1.104,0.895-2,2-2h22.057c1.104,0,2,0.896,2,2
	C122.292,210.964,116.448,216.808,109.264,216.808 M100.458,205.779c0.913,4.021,4.514,7.028,8.806,7.028
	c4.291,0,7.892-3.008,8.805-7.028H100.458z"/>
</svg>
