<?xml version="1.0" encoding="UTF-8" standalone="no"?> <svg id="Layer_1" data-name="Layer 1" xmlns="http://www.w3.org/2000/svg" viewBox="0 0 128 128"><defs><style>.cls-1{fill:#2d3e50;}</style></defs><title>x</title><path class="cls-1" d="M121.79729,43.42872q-.59-1.65564-1.26992-3.2655a61.33976,61.33976,0,0,0-56.056-37.50576l-.46965-.00339-.43913.00339A61.35631,61.35631,0,0,0,7.47263,40.16322Q6.791,41.77308,6.20441,43.427a61.40051,61.40051,0,0,0-.0017,41.14765c.39335,1.10376.81722,2.194,1.27331,3.26211a61.33261,61.33261,0,0,0,56.056,37.50576l.46965.00339.43913-.00339a61.35162,61.35162,0,0,0,56.08655-37.50576q.68158-1.60732,1.26822-3.26211a61.39561,61.39561,0,0,0,.0017-41.146ZM97.33487,49.47481h15.53231a51.11483,51.11483,0,0,1,0,29.05209h-15.534a111.69791,111.69791,0,0,0,.93591-14.52859A111.93875,111.93875,0,0,0,97.33487,49.47481ZM69.18648,78.52689V49.47481H86.84493a99.25433,99.25433,0,0,1,1.05289,14.5235,99.28967,99.28967,0,0,1-1.05289,14.52859Zm0-39.42335V14.34611c6.36993,3.26889,12.10235,12.38211,15.4984,24.75743Zm18.19252-20.4a50.882,50.882,0,0,1,21.09519,20.4H95.42406a75.87717,75.87717,0,0,0-6.25633-17.19727Q88.30813,20.24554,87.379,18.7035Zm21.09519,70.193a50.904,50.904,0,0,1-21.0918,20.4q.92319-1.53356,1.78534-3.19768a75.938,75.938,0,0,0,6.25633-17.20236Zm-23.78931,0c-3.39605,12.377-9.12848,21.49024-15.4984,24.75743V88.89646ZM58.81522,14.34781V39.10354H43.31512C46.71117,26.72991,52.44359,17.6167,58.81522,14.34781Zm0,35.127V78.52689H41.15507a100.72924,100.72924,0,0,1,0-29.05209Zm0,39.42165v24.75743c-6.37162-3.26889-12.104-12.38211-15.5001-24.75743ZM19.5292,39.10354a50.86382,50.86382,0,0,1,21.0918-20.4q-.92828,1.53611-1.78873,3.20277a76.0573,76.0573,0,0,0-6.25633,17.19727ZM32.57594,88.89646a76.23618,76.23618,0,0,0,6.25463,17.20067q.85961,1.66072,1.78534,3.19937a50.87175,50.87175,0,0,1-21.08671-20.4ZM30.66682,78.52689H15.13451a51.07544,51.07544,0,0,1,0-29.05209H30.66682a113.39983,113.39983,0,0,0,0,29.05209Z"/></svg>