<svg id="Layer" enable-background="new 0 0 64 64" height="68" viewBox="0 0 64 64" width="68" xmlns="http://www.w3.org/2000/svg"><path d="M18.2068 1.09764L21.7442 4.63511C22.085 4.97627 22.085 5.53011 21.7442 5.87172L20.5081 7.10789C20.1669 7.44905 19.6131 7.44905 19.2715 7.10789L15.7335 3.56953C15.3924 3.22836 15.3924 2.67452 15.7335 2.33336L16.9702 1.09764C17.3118 0.756027 17.8656 0.756027 18.2068 1.09764ZM19.1703 5.7195C19.1703 6.11573 19.4917 6.43675 19.8875 6.43675C20.2838 6.43675 20.6048 6.11528 20.6052 5.7195C20.6052 5.32281 20.2838 5.00179 19.8875 5.00179C19.4917 5.00179 19.1703 5.32326 19.1703 5.7195ZM14.9872 3.55074C15.0539 3.57178 15.1157 3.60805 15.1654 3.65819L19.1824 7.67741C19.353 7.84799 19.353 8.12514 19.1824 8.29527L16.4065 11.0707L17.0825 11.7472C17.593 12.2581 17.5589 13.1249 17.0055 13.6783C16.7351 13.9496 16.3904 14.0937 16.0487 14.1134C16.029 14.4551 15.8844 14.7994 15.6145 15.0698C15.3431 15.3402 14.9993 15.4844 14.6586 15.5045C14.638 15.8457 14.4929 16.1904 14.2225 16.4604C13.953 16.7308 13.6078 16.8755 13.2666 16.8956C13.2464 17.2368 13.1023 17.5815 12.8323 17.8515C12.278 18.4049 11.4126 18.4407 10.9008 17.929L9.29752 16.3261L8.48087 17.1423C8.13881 17.4839 7.55095 17.4485 7.16725 17.0653C6.7831 16.6807 6.74863 16.0928 7.08979 15.7521C6.74863 16.0933 6.16032 16.0584 5.77617 15.6742C5.39202 15.2905 5.35755 14.7027 5.69916 14.361C5.35755 14.7027 4.76879 14.6664 4.38554 14.2836C4.00139 13.8994 3.96647 13.3116 4.30808 12.97C3.96647 13.3116 3.37816 13.2762 2.99491 12.893C2.61031 12.5084 2.57584 11.92 2.917 11.5793L3.69022 10.8061L1.08268 8.19901C0.912544 8.02798 0.912544 7.75084 1.08268 7.5807C1.25326 7.40967 1.5304 7.40967 1.70099 7.5807L4.31525 10.195C4.66313 9.9214 5.19816 9.97021 5.55723 10.3293C5.94093 10.7139 5.9763 11.3022 5.63424 11.6434C5.9763 11.3022 6.56461 11.3371 6.94786 11.7213C7.33246 12.1045 7.36693 12.6928 7.02577 13.034C7.36693 12.6928 7.95524 12.7282 8.33939 13.1114C8.72354 13.4951 8.75712 14.0839 8.41595 14.4255C8.75712 14.0834 9.34677 14.1188 9.73002 14.5016C10.0721 14.845 10.1348 15.3478 9.90419 15.6944L11.5187 17.3102C11.6857 17.4776 12.004 17.4423 12.2144 17.2327C12.4235 17.0232 12.4593 16.7049 12.2915 16.537L10.9653 15.2104C10.7952 15.0407 10.7952 14.7635 10.9653 14.593C11.1359 14.4224 11.413 14.4224 11.5832 14.593L12.9093 15.9187C13.0772 16.0866 13.3955 16.0507 13.6046 15.8417C13.8137 15.6321 13.85 15.3138 13.6825 15.1463L12.3564 13.8202C12.1853 13.6492 12.1853 13.372 12.3564 13.2023C12.5265 13.0313 12.8032 13.0313 12.9742 13.2023L14.3008 14.528C14.4674 14.695 14.7866 14.6601 14.9962 14.4501C15.2057 14.241 15.2406 13.9227 15.0732 13.7557L13.747 12.4291C13.576 12.2585 13.576 11.9814 13.747 11.8117C13.918 11.6402 14.1938 11.6402 14.3649 11.8117L15.691 13.1374C15.8585 13.3044 16.1772 13.2686 16.3868 13.0595C16.5968 12.85 16.6317 12.5316 16.4638 12.3637C16.4638 12.3637 11.7434 7.62324 10.8431 6.7542L10.8429 6.75405C10.7385 6.65367 10.4931 6.41778 9.97717 6.93419C9.82584 7.08552 9.68212 7.27715 9.58317 7.46206L8.98143 8.57823C8.92233 8.68837 8.82204 8.81821 8.70429 8.93596C8.25388 9.38593 7.67855 9.56636 7.12382 9.43338C6.62819 9.31474 6.2136 8.98521 5.98347 8.52809C5.82273 8.20796 5.78781 7.88695 5.89034 7.64607L7.68034 3.43567C7.74481 3.28479 7.87062 3.11152 8.03494 2.94721C8.31656 2.66469 9.36199 1.78447 10.9689 2.28905L14.9872 3.55074Z" fill="white"></path></svg>