<svg id="Layer" enable-background="new 0 0 64 64" height="68" viewBox="0 0 64 64" width="68" xmlns="http://www.w3.org/2000/svg"><path d="M14.3903 9.44495L15.5714 10.2277C18.6062 12.2413 19.6842 15.3328 19.6842 17.3684H22C22 14.8986 20.8965 11.5454 17.886 9.064C18.7208 7.87368 19.162 6.4981 19.1458 5.08663C19.1249 3.30926 18.3665 1.61642 17.0095 0.320737L15.4116 1.99505C16.3263 2.87042 16.8173 3.94842 16.8312 5.11326C16.8451 6.31979 16.3333 7.502 15.3931 8.44453L14.3903 9.44495ZM8.68421 0C6.12989 0 4.05263 2.07726 4.05263 4.63158C4.05263 7.18589 6.12989 9.26316 8.68421 9.26316C11.2385 9.26316 13.3158 7.18589 13.3158 4.63158C13.3158 2.07726 11.2385 0 8.68421 0ZM8.68421 6.94737C7.40705 6.94737 6.36842 5.90874 6.36842 4.63158C6.36842 3.35442 7.40705 2.31579 8.68421 2.31579C9.96137 2.31579 11 3.35442 11 4.63158C11 5.90874 9.96137 6.94737 8.68421 6.94737ZM2.31579 17.3684C2.31579 14.8141 4.39305 12.7368 6.94737 12.7368H10.4211C12.9754 12.7368 15.0526 14.8141 15.0526 17.3684V18.5263H17.3684V17.3684C17.3684 13.5369 14.2525 10.4211 10.4211 10.4211H6.94737C3.1159 10.4211 0 13.5369 0 17.3684V18.5263H2.31579V17.3684Z" fill="white"></path></svg>