<svg id="Layer_1" enable-background="new 0 0 512 512" height="100%" viewBox="0 0 512 512" width="100%" xmlns="http://www.w3.org/2000/svg"><g id="XMLID_1294_"><g id="XMLID_44_"><path id="XMLID_62_" d="m468.027 112.497c-3.101-4.57-9.317-5.766-13.889-2.664-4.571 3.1-5.764 9.317-2.665 13.889 26.513 39.099 40.527 84.841 40.527 132.278 0 130.131-105.869 236-236 236s-236-105.869-236-236 105.869-236 236-236c48.662 0 95.381 14.688 135.107 42.474 4.524 3.165 10.761 2.063 13.926-2.463 3.166-4.525 2.063-10.761-2.462-13.926-43.104-30.149-93.787-46.085-146.571-46.085-68.38 0-132.667 26.629-181.019 74.98-48.353 48.353-74.981 112.64-74.981 181.02s26.628 132.667 74.981 181.02c48.352 48.351 112.639 74.98 181.019 74.98s132.667-26.629 181.019-74.98c48.353-48.353 74.981-112.64 74.981-181.02 0-51.455-15.206-101.078-43.973-143.503z"/><path id="XMLID_88_" d="m256 54c-111.383 0-202 90.617-202 202s90.617 202 202 202 202-90.617 202-202-90.617-202-202-202zm135.6 80.747-58.347 101.061-93.066-161.113c5.213-.451 10.485-.695 15.813-.695 53.82 0 102.25 23.49 135.6 60.747zm-168.509 178.253-32.909-57 32.909-57h65.77l32.846 56.807-32.798 57.193zm-4.2-235.192 58.423 101.192h-186.197c23.986-51.156 71.084-89.401 127.774-101.192zm-135.739 121.192h116.845l-93.218 161.071c-20.646-29.513-32.779-65.399-32.779-104.071 0-19.901 3.221-39.061 9.152-57zm36.977 177.948 58.395-101.142 93.198 161.507c-5.184.446-10.425.687-15.722.687-53.966 0-102.513-23.618-135.871-61.052zm172.895 57.263-58.434-101.211h186.293c-23.998 51.182-71.131 89.441-127.859 101.211zm135.824-121.211h-116.845l92.974-161.423c20.795 29.58 33.023 65.598 33.023 104.423 0 19.901-3.221 39.061-9.152 57z"/><path id="XMLID_103_" d="m431.21 93.31c2.63 0 5.21-1.06 7.07-2.93 1.86-1.86 2.93-4.43 2.93-7.07 0-2.63-1.07-5.21-2.93-7.069-1.86-1.86-4.44-2.931-7.07-2.931s-5.21 1.07-7.07 2.931c-1.86 1.859-2.93 4.439-2.93 7.069 0 2.641 1.07 5.21 2.93 7.07 1.86 1.87 4.44 2.93 7.07 2.93z"/></g></g></svg>