<?xml version="1.0" encoding="UTF-8" standalone="no"?> <svg height="100%" width="100%" id="Capa_1" enable-background="new 0 0 510.771 510.771" viewBox="0 0 510.771 510.771" xmlns="http://www.w3.org/2000/svg"><g><path d="m222.882 145.686 112.292 112.292 38.874-31.083-120.153-120.152z"/><path d="m378.658 480.772h-291.232c-15.122-.002-27.426-12.305-27.426-27.427 0-7.327 2.853-14.214 8.033-19.394l30.261-30.261 24.28 24.28 63.288-50.604-82.099-82.099-50.49 63.402 23.808 23.808-30.261 30.261c-10.846 10.846-16.819 25.267-16.82 40.607 0 15.834 6.438 30.188 16.839 40.588 10.398 10.396 24.757 16.839 40.588 16.839h291.231z"/><path d="m122.571 271.649 86.867 86.867 102.161-81.687-107.525-107.525z"/><path d="m405.596 216.017c15.948-5.426 30.581-14.446 42.716-26.581 43.279-43.279 43.279-113.699 0-156.978s-113.699-43.279-156.978 0c-12.135 12.135-21.155 26.768-26.58 42.716z"/></g></svg>